<svg width="112" height="75" viewBox="0 0 112 75" fill="none" xmlns="http://www.w3.org/2000/svg">
<g clip-path="url(#clip0_103_10211)">
<rect width="112" height="75" rx="8" fill="#EBF7FF"/>
<line x1="67.8779" y1="60.2758" x2="-1.90203" y2="60.2758" stroke="#004ECC" stroke-width="0.746667"/>
<path d="M64.9697 0H111.642C111.84 0 112 0.160413 112 0.358293V67.7542H64.9697V0Z" fill="#004ECC"/>
<path d="M78.8804 5.26083C78.8804 4.70855 79.3281 4.26083 79.8804 4.26083H98.9917C99.544 4.26083 99.9917 4.70855 99.9917 5.26083V21.4589H79.3562C79.0934 21.4589 78.8804 21.2459 78.8804 20.9831V5.26083Z" fill="#99D6FF"/>
<path d="M78.8804 40.2608C78.8804 39.7085 79.3281 39.2608 79.8804 39.2608H98.9917C99.544 39.2608 99.9917 39.7085 99.9917 40.2608V56.4589H79.3562C79.0934 56.4589 78.8804 56.2459 78.8804 55.9831V40.2608Z" fill="#99D6FF"/>
<path d="M107.716 39.9774C107.716 39.5817 108.037 39.2608 108.432 39.2608H118.291C118.687 39.2608 119.008 39.5817 119.008 39.9774V67.7579H107.716V39.9774Z" fill="#0093F5"/>
<rect x="77.8154" y="54.8567" width="23.2414" height="4.29951" rx="0.358293" fill="#F4F4FE"/>
<rect x="77.8154" y="19.0283" width="23.2414" height="4.29951" rx="0.358293" fill="#F4F4FE"/>
</g>
<defs>
<clipPath id="clip0_103_10211">
<rect width="112" height="75" rx="8" fill="white"/>
</clipPath>
</defs>
</svg>
