<svg width="355" height="150" viewBox="0 0 355 150" fill="none" xmlns="http://www.w3.org/2000/svg">
<g clip-path="url(#clip0_137_21266)">
<rect width="172.214" height="150" rx="6.3292" fill="#EBF7FF"/>
<path d="M68.5674 94.4116C67.9849 94.4117 67.5127 94.8838 67.5127 95.4663V96.5171H66.459C66.1678 96.5171 65.9319 96.7533 65.9316 97.0444V99.6812H52.7441C52.4529 99.6812 52.2168 99.9172 52.2168 100.208V103.9C52.2168 104.191 52.4529 104.427 52.7441 104.427H65.9297L65.9316 104.426V107.066C65.9316 107.357 66.1677 107.593 66.459 107.593H67.5127V108.652C67.5127 109.234 67.9849 109.706 68.5674 109.707H72.2598C72.8423 109.706 73.3144 109.234 73.3145 108.652V106.556C73.3528 106.565 73.3902 106.578 73.4258 106.596L79.4082 109.587C79.7589 109.763 80.1719 109.508 80.1719 109.116V98.1021C80.1719 97.8108 79.9348 97.5747 79.6436 97.5747H73.3145V95.4663C73.3145 94.8838 72.8423 94.4117 72.2598 94.4116H68.5674Z" fill="#FFC72C"/>
<rect x="79.6426" y="-2.10632" width="12.6584" height="155.593" fill="#FCD34D"/>
<rect x="77.0039" y="26.3787" width="17.9327" height="9.49379" rx="1.5823" fill="#E5B328"/>
<path d="M93.8818 77.5313C94.4643 77.5313 94.9374 78.0035 94.9375 78.586V78.588H94.9385C95.5211 78.588 95.9932 79.061 95.9932 79.6436V83.335C95.9932 83.9176 95.5211 84.3897 94.9385 84.3897H94.9375C94.9366 84.9707 94.4656 85.4401 93.8848 85.4415V91.2432C93.8847 91.6335 93.6715 91.9729 93.3564 92.1553V96.5137C93.3564 96.9032 93.1441 97.2422 92.8301 97.4249V109.849C93.146 110.031 93.3584 110.372 93.3584 110.763V115.121C93.6723 115.304 93.8838 115.644 93.8838 116.033V121.833L93.9912 121.839C94.5233 121.893 94.9385 122.342 94.9385 122.889V122.894H94.9404C95.5229 122.894 95.9949 123.366 95.9951 123.948V127.641C95.9951 128.223 95.523 128.695 94.9404 128.695H94.9385C94.9356 129.275 94.4646 129.745 93.8838 129.745H78.0605C77.4795 129.745 77.0082 129.275 77.0059 128.694C76.4243 128.693 75.9531 128.223 75.9531 127.641V123.948C75.9533 123.367 76.4244 122.895 77.0059 122.894V122.889C77.0059 122.306 77.478 121.833 78.0605 121.833V116.033C78.0605 115.642 78.274 115.3 78.5908 115.118V110.763C78.5908 110.373 78.8022 110.033 79.1162 109.851V97.4268C78.8007 97.2445 78.5879 96.9043 78.5879 96.5137V92.1553C78.2733 91.9728 78.0616 91.6331 78.0615 91.2432V85.4424H78.0596C77.4772 85.4424 77.0043 84.971 77.0039 84.3887C76.4223 84.3876 75.9512 83.9169 75.9512 83.335V79.6436C75.9512 79.0617 76.4223 78.5891 77.0039 78.588V78.586C77.004 78.0035 77.4771 77.5313 78.0596 77.5313H93.8818Z" fill="#E5B328"/>
<path d="M88.6084 11.0801C89.1909 11.0801 89.664 11.5523 89.6641 12.1348V22.6836C89.6641 23.2662 89.191 23.7383 88.6084 23.7383H88.083V31.1221C88.083 32.2872 87.1378 33.2324 85.9727 33.2324C84.8076 33.2323 83.8633 32.2871 83.8633 31.1221V23.7383H83.335C82.7524 23.7383 82.2793 23.2662 82.2793 22.6836V12.1348C82.2794 11.5523 82.7524 11.0801 83.335 11.0801H88.6084Z" fill="#CC9F23"/>
<path d="M49.2354 115.912C49.1374 117.627 50.5012 119.071 52.2188 119.071C53.9365 119.071 55.3011 117.627 55.2031 115.912L54.4795 103.249H49.959L49.2354 115.912ZM52.2188 84.7809C50.5032 84.7809 49.1423 86.2269 49.2471 87.9391L49.958 99.5485H54.4785L55.1895 87.9391C55.2942 86.227 53.9341 84.7811 52.2188 84.7809Z" fill="#FFE395"/>
<rect width="7.38406" height="6.85663" rx="0.527433" transform="matrix(-1 0 0 1 55.9062 98.6367)" fill="#FBBF24"/>
<path d="M85.9708 30.5989L95.3721 33.7327C99.6795 35.1685 102.585 39.1996 102.585 43.74V157.71" stroke="#1BA158" stroke-width="1.5823"/>
<circle cx="85.9701" cy="30.8584" r="2.37345" fill="#FDE047"/>
</g>
<g clip-path="url(#clip1_137_21266)">
<rect x="182.215" width="172.266" height="150" rx="6.32812" fill="#EBF7FF"/>
<rect x="292.957" y="-17.9306" width="12.6562" height="155.566" fill="#FCD34D"/>
<rect x="228.621" y="-17.9306" width="12.6562" height="155.566" fill="#FCD34D"/>
<rect x="290.32" y="18.457" width="17.9297" height="9.49219" rx="1.58203" fill="#E5B328"/>
<path d="M301.922 3.16217C302.504 3.16217 302.977 3.6344 302.977 4.21686V14.7637C302.977 15.3462 302.504 15.8184 301.922 15.8184H301.395V23.1993C301.395 24.3641 300.45 25.3084 299.285 25.3087C298.12 25.3087 297.176 24.3643 297.176 23.1993V15.8184H296.648C296.066 15.8184 295.594 15.3462 295.594 14.7637V4.21686C295.594 3.6344 296.066 3.16217 296.648 3.16217H301.922Z" fill="#CC9F23"/>
<path d="M300.34 22.6776L309.74 25.8108C314.046 27.2464 316.951 31.2768 316.951 35.8165V149.767" stroke="#1BA158" stroke-width="1.58203"/>
<circle cx="299.285" cy="22.9404" r="2.37305" fill="#FDE047"/>
<path d="M307.193 56.9569C307.775 56.9571 308.247 57.4281 308.248 58.0096L308.356 58.0155C308.888 58.0696 309.303 58.5183 309.303 59.0643V62.7557C309.303 63.3017 308.888 63.7504 308.356 63.8046L308.248 63.8104V63.8124C308.248 64.3947 307.776 64.8669 307.193 64.8671H306.666V80.6884C306.666 80.9795 306.43 81.2157 306.139 81.2157H292.428C292.137 81.2155 291.9 80.9794 291.9 80.6884V64.8671H291.373C290.791 64.8671 290.318 64.3948 290.318 63.8124V63.8104C289.736 63.8102 289.264 63.3381 289.264 62.7557V59.0643C289.264 58.5182 289.679 58.0695 290.211 58.0155L290.318 58.0096C290.319 57.428 290.791 56.9569 291.373 56.9569H307.193Z" fill="#EAB308"/>
<path d="M242.859 56.9569C243.441 56.9571 243.913 57.4281 243.914 58.0096L244.022 58.0155C244.554 58.0696 244.969 58.5183 244.969 59.0643V62.7557C244.969 63.3017 244.554 63.7505 244.022 63.8046L243.914 63.8104V63.8124C243.914 64.3947 243.442 64.8669 242.859 64.8671H242.332V80.6884C242.332 80.9795 242.096 81.2157 241.805 81.2157H228.094C227.803 81.2155 227.567 80.9794 227.566 80.6884V64.8671H227.039C226.457 64.8671 225.984 64.3948 225.984 63.8124V63.8104C225.402 63.8102 224.93 63.3381 224.93 62.7557V59.0643C224.93 58.5183 225.345 58.0695 225.877 58.0155L225.984 58.0096C225.985 57.428 226.457 56.9569 227.039 56.9569H242.859Z" fill="#EAB308"/>
<rect x="221.766" y="75.9384" width="90.7031" height="64.8633" rx="5.27344" fill="#FFC72C"/>
<rect x="221.766" y="87.5381" width="90.7031" height="19.5117" fill="#EAB308"/>
<rect x="247.605" y="91.7587" width="39.0234" height="10.5469" fill="white"/>
<circle cx="294.539" cy="97.0331" r="3.16406" fill="white"/>
<circle cx="302.977" cy="97.0331" r="3.16406" fill="white"/>
</g>
<defs>
<clipPath id="clip0_137_21266">
<rect width="172.214" height="150" rx="6.3292" fill="white"/>
</clipPath>
<clipPath id="clip1_137_21266">
<rect x="182.215" width="172.266" height="150" rx="6.32812" fill="white"/>
</clipPath>
</defs>
</svg>
