<svg width="113" height="75" viewBox="0 0 113 75" fill="none" xmlns="http://www.w3.org/2000/svg">
<g clip-path="url(#clip0_103_10279)">
<path d="M49.5898 38.1874V65.5836C49.5898 67.3937 51.0572 68.8611 52.8673 68.8611H61.4706C63.2807 68.8611 64.7481 67.3937 64.7481 65.5836L64.7481 58.3501C64.7481 56.54 63.2807 55.0726 61.4706 55.0726H56.1508C53.8105 55.0726 52.2243 57.4548 53.1269 59.6141L54.6681 63.3012C55.1779 64.5207 56.3703 65.3147 57.6921 65.3147H59.1265C60.962 65.3147 62.4396 63.8076 62.4033 61.9725L62.063 44.7454C62.0227 42.7052 64.366 41.5298 65.9772 42.7822V42.7822" stroke="#0093F5" stroke-width="0.8"/>
<rect x="48.354" y="39.4875" width="2.45879" height="1.88609" rx="0.64" fill="#FF5900"/>
<rect x="38.5" y="5.5" width="22.4" height="35.0155" rx="4.09683" fill="#004ECC"/>
<path d="M70.9275 50.6546L65.0744 43.7323C64.8715 43.492 64.884 43.1369 65.1027 42.9107L66.3374 41.6336C66.5561 41.4077 66.91 41.3837 67.157 41.5784L74.2726 47.1948L70.9275 50.6546Z" fill="#004ECC" stroke="#FFF4EB" stroke-width="0.96"/>
<mask id="path-5-inside-1_103_10279" fill="white">
<path d="M80.985 62.2653C80.4978 62.7691 79.6945 62.7832 79.1906 62.2963L77.4529 60.6163C77.2407 60.4109 77.1073 60.1378 77.0746 59.8443L76.8614 57.9321C76.796 57.3449 76.528 56.7989 76.1033 56.3882L70.1013 50.5851L74.1727 46.3741L80.1593 52.1622C80.5933 52.5818 81.1633 52.8329 81.7659 52.8706L83.6948 52.9914C83.996 53.0103 84.2807 53.1356 84.4977 53.3453L86.2277 55.0179C86.7314 55.5052 86.7444 56.3084 86.2572 56.8123L80.985 62.2653Z"/>
</mask>
<path d="M80.985 62.2653C80.4978 62.7691 79.6945 62.7832 79.1906 62.2963L77.4529 60.6163C77.2407 60.4109 77.1073 60.1378 77.0746 59.8443L76.8614 57.9321C76.796 57.3449 76.528 56.7989 76.1033 56.3882L70.1013 50.5851L74.1727 46.3741L80.1593 52.1622C80.5933 52.5818 81.1633 52.8329 81.7659 52.8706L83.6948 52.9914C83.996 53.0103 84.2807 53.1356 84.4977 53.3453L86.2277 55.0179C86.7314 55.5052 86.7444 56.3084 86.2572 56.8123L80.985 62.2653Z" fill="#004ECC"/>
<path d="M80.985 62.2653L81.6751 62.9327L81.6752 62.9326L80.985 62.2653ZM79.1906 62.2963L78.5233 62.9864L78.5235 62.9866L79.1906 62.2963ZM77.4529 60.6163L76.7854 61.3062L76.7856 61.3064L77.4529 60.6163ZM77.0746 59.8443L78.0287 59.738L78.0287 59.7379L77.0746 59.8443ZM76.8614 57.9321L75.9073 58.0383L75.9073 58.0384L76.8614 57.9321ZM76.1033 56.3882L76.7707 55.6981L76.7706 55.698L76.1033 56.3882ZM70.1013 50.5851L69.4111 49.9178L68.7438 50.608L69.434 51.2753L70.1013 50.5851ZM74.1727 46.3741L74.84 45.6839L74.1498 45.0166L73.4825 45.7068L74.1727 46.3741ZM80.1593 52.1622L79.492 52.8524L79.492 52.8524L80.1593 52.1622ZM81.7659 52.8706L81.8259 51.9125L81.8258 51.9125L81.7659 52.8706ZM83.6948 52.9914L83.6348 53.9496L83.6349 53.9496L83.6948 52.9914ZM84.4977 53.3453L85.165 52.6551L85.1649 52.655L84.4977 53.3453ZM86.2277 55.0179L86.8951 54.3279L86.8949 54.3277L86.2277 55.0179ZM86.2572 56.8123L85.567 56.145L86.2572 56.8123ZM80.985 62.2653L80.2949 61.598C80.1757 61.7213 79.9799 61.7241 79.8576 61.6059L79.1906 62.2963L78.5235 62.9866C79.4091 63.8424 80.8199 63.817 81.6751 62.9327L80.985 62.2653ZM79.1906 62.2963L79.8578 61.6061L78.1202 59.9261L77.4529 60.6163L76.7856 61.3064L78.5233 62.9864L79.1906 62.2963ZM77.4529 60.6163L78.1205 59.9263C78.0698 59.8773 78.0368 59.8109 78.0287 59.738L77.0746 59.8443L76.1205 59.9506C76.1778 60.4646 76.4117 60.9446 76.7854 61.3062L77.4529 60.6163ZM77.0746 59.8443L78.0287 59.7379L77.8155 57.8257L76.8614 57.9321L75.9073 58.0384L76.1205 59.9507L77.0746 59.8443ZM76.8614 57.9321L77.8155 57.8258C77.7254 57.0167 77.356 56.2642 76.7707 55.6981L76.1033 56.3882L75.4359 57.0782C75.6999 57.3336 75.8666 57.6731 75.9073 58.0383L76.8614 57.9321ZM76.1033 56.3882L76.7706 55.698L70.7685 49.895L70.1013 50.5851L69.434 51.2753L75.436 57.0783L76.1033 56.3882ZM70.1013 50.5851L70.7914 51.2524L74.8629 47.0414L74.1727 46.3741L73.4825 45.7068L69.4111 49.9178L70.1013 50.5851ZM74.1727 46.3741L73.5054 47.0643L79.492 52.8524L80.1593 52.1622L80.8266 51.472L74.84 45.6839L74.1727 46.3741ZM80.1593 52.1622L79.492 52.8524C80.0905 53.431 80.8759 53.7768 81.706 53.8288L81.7659 52.8706L81.8258 51.9125C81.4507 51.889 81.0962 51.7327 80.8265 51.472L80.1593 52.1622ZM81.7659 52.8706L81.7059 53.8288L83.6348 53.9496L83.6948 52.9914L83.7548 52.0333L81.8259 51.9125L81.7659 52.8706ZM83.6948 52.9914L83.6349 53.9496C83.7088 53.9542 83.7781 53.9849 83.8306 54.0356L84.4977 53.3453L85.1649 52.655C84.7833 52.2863 84.2831 52.0664 83.7547 52.0333L83.6948 52.9914ZM84.4977 53.3453L83.8305 54.0355L85.5604 55.708L86.2277 55.0179L86.8949 54.3277L85.165 52.6551L84.4977 53.3453ZM86.2277 55.0179L85.5602 55.7078C85.6825 55.8262 85.6862 56.0218 85.567 56.145L86.2572 56.8123L86.9474 57.4796C87.8026 56.595 87.7802 55.1842 86.8951 54.3279L86.2277 55.0179ZM86.2572 56.8123L85.567 56.145L80.2948 61.5981L80.985 62.2653L81.6752 62.9326L86.9474 57.4796L86.2572 56.8123Z" fill="#FFF4EB" mask="url(#path-5-inside-1_103_10279)"/>
<rect x="46.313" y="11.2375" width="7.37429" height="3.27746" rx="0.819365" fill="#FF5900"/>
</g>
<defs>
<clipPath id="clip0_103_10279">
<rect width="49" height="64" fill="white" transform="translate(38.5 5.5)"/>
</clipPath>
</defs>
</svg>
