<svg width="112" height="75" viewBox="0 0 112 75" fill="none" xmlns="http://www.w3.org/2000/svg">
<g clip-path="url(#clip0_149_4169)">
<g clip-path="url(#clip1_149_4169)">
<rect x="-0.0996094" y="0.936066" width="112" height="74.6667" rx="8" fill="#EBF7FF"/>
<path d="M95.414 38.9966C96.0979 38.9827 96.8163 39.2065 97.4697 39.5024C98.1256 39.7996 98.7322 40.176 99.1933 40.4819C99.4228 40.6342 99.621 40.7721 99.7665 40.8706C99.8406 40.9207 99.9002 40.9606 99.9462 40.9888C99.9994 41.0213 100.014 41.0267 100.008 41.0249L99.9579 41.2046L99.9072 41.3843C99.8556 41.3698 99.7973 41.3355 99.7509 41.3071C99.6972 41.2742 99.631 41.2306 99.5566 41.1802C99.4052 41.0777 99.2145 40.9449 98.9863 40.7935C98.5315 40.4917 97.9454 40.1273 97.3163 39.8423C96.6848 39.5562 96.0247 39.3573 95.4208 39.3696C94.8265 39.3819 94.2839 39.598 93.8603 40.1558C93.6503 40.4323 93.4262 40.9447 93.2011 41.6558C92.9778 42.361 92.7599 43.2429 92.5556 44.2407C92.1472 46.2359 91.7951 48.6862 91.5644 51.106C91.3336 53.5263 91.2238 55.91 91.2978 57.7729C91.3348 58.7051 91.4177 59.5005 91.5517 60.1021C91.5728 60.1969 91.5957 60.2866 91.6191 60.3706C92.1621 60.3639 92.7126 60.4377 93.4804 60.5581C94.0773 60.6517 94.4806 60.8501 94.6767 61.1108C94.7778 61.2453 94.8248 61.3994 94.8036 61.5552C94.7826 61.7092 94.698 61.8428 94.5781 61.9448C94.3414 62.146 93.9525 62.2422 93.4892 62.1919C93.0206 62.1409 92.4578 61.9392 91.8466 61.5161C91.6817 61.4019 91.5528 61.2179 91.4491 60.9976C91.4137 60.9222 91.3818 60.8404 91.3505 60.7534C91.1815 60.765 91.0098 60.7859 90.8281 60.8169C89.988 60.9601 88.9252 61.3213 86.874 62.0278C84.789 62.7459 82.3815 62.6815 80.5683 62.3325C79.6616 62.158 78.8907 61.9094 78.3759 61.644C78.1213 61.5128 77.9124 61.3692 77.7851 61.2153C77.7205 61.1373 77.6694 61.0467 77.6513 60.9458C77.6324 60.8399 77.6534 60.7357 77.7118 60.6431C77.7689 60.5529 77.8553 60.4851 77.9482 60.4331C78.0426 60.3803 78.1563 60.3366 78.2812 60.2983C78.5306 60.222 78.85 60.1627 79.2109 60.1108C79.9289 60.0076 80.8638 59.9279 81.7968 59.8159C82.7392 59.7028 83.6955 59.5547 84.498 59.313C85.3083 59.0689 85.9226 58.7403 86.2245 58.2935C86.8955 57.3004 87.0444 56.1528 86.8759 54.8472C86.7067 53.537 86.2198 52.086 85.6376 50.4995C84.4785 47.3411 82.9462 43.668 82.9462 39.6792C82.9462 38.1525 82.9088 36.4843 82.8759 35.0171C82.8431 33.5531 82.8147 32.2838 82.8339 31.562L83.207 31.5718C83.188 32.282 83.216 33.5398 83.249 35.0093C83.2818 36.4755 83.3202 38.1476 83.3202 39.6792C83.3202 43.5861 84.8198 47.1868 85.9882 50.3706C86.5697 51.9551 87.0708 53.4425 87.246 54.7993C87.4218 56.1608 87.2716 57.4095 86.5331 58.5024C86.1553 59.0615 85.4337 59.4211 84.6064 59.6704C83.7712 59.922 82.7874 60.0734 81.8407 60.187C80.8847 60.3018 79.9807 60.377 79.2646 60.48C78.9086 60.5312 78.6119 60.5881 78.3906 60.6558C78.28 60.6896 78.1937 60.7241 78.1308 60.7593C78.0669 60.7951 78.0385 60.8247 78.0273 60.8423C78.0176 60.8576 78.0163 60.8679 78.0185 60.8804C78.0217 60.8979 78.0344 60.9302 78.0732 60.9771C78.1527 61.0732 78.3083 61.189 78.5468 61.312C79.019 61.5554 79.7523 61.7947 80.6386 61.9653C82.4114 62.3066 84.7489 62.3646 86.7529 61.6743C88.7899 60.9727 89.8879 60.5983 90.7656 60.4487C90.9288 60.4209 91.0848 60.4022 91.2372 60.3892C91.2199 60.3227 91.2032 60.2538 91.1874 60.1831C91.0465 59.5504 90.9632 58.7304 90.9257 57.7886C90.8507 55.9027 90.9607 53.5003 91.1923 51.0708C91.4241 48.6405 91.7778 46.1762 92.1894 44.1655C92.3952 43.1604 92.6161 42.2654 92.8447 41.5435C93.0713 40.8277 93.3116 40.2617 93.5634 39.9302C94.0646 39.2703 94.7203 39.0107 95.414 38.9966ZM91.787 60.8384C91.8768 61.0293 91.97 61.147 92.0585 61.2085C92.6283 61.6029 93.1333 61.7777 93.5292 61.8208C93.9305 61.8644 94.2034 61.7723 94.3359 61.6597C94.4005 61.6047 94.4273 61.5499 94.4335 61.5044C94.4394 61.4605 94.4292 61.4037 94.3779 61.3354C94.2687 61.1904 93.9843 61.0153 93.4228 60.9272C92.7189 60.8168 92.2171 60.7482 91.746 60.7427C91.7597 60.7759 91.7728 60.8081 91.787 60.8384Z" fill="#0093F5"/>
<path d="M-13.54 57.6651L-13.54 57.2921L83 57.2921L83 57.6651L-13.54 57.6651Z" fill="#004ECC"/>
<path d="M93.459 57.2921L103.679 57.2286L103.681 57.6016L93.4609 57.6651L93.459 57.2921Z" fill="#004ECC"/>
<path d="M79.1025 19.6727C79.1025 18.8866 79.7398 18.2494 80.5258 18.2494H85.4612C86.2472 18.2494 86.8844 18.8866 86.8844 19.6727V28.9908C86.8844 29.7768 86.2472 30.414 85.4612 30.414H80.5258C79.7398 30.414 79.1025 29.7768 79.1025 28.9908V19.6727Z" fill="#002F87"/>
<path d="M85.5506 24.893C85.5506 26.2779 84.4278 27.4007 83.0429 27.4007C81.6579 27.4007 80.5352 26.2779 80.5352 24.893C80.5352 23.508 81.6579 22.3853 83.0429 22.3853C84.4278 22.3853 85.5506 23.508 85.5506 24.893Z" fill="#F4F4FE"/>
<path d="M77.1208 25.9309C77.0476 26.0035 76.9294 26.003 76.8568 25.9298L76.594 25.6647C76.5214 25.5915 76.5219 25.4733 76.5951 25.4007L77.6722 24.3327L76.5959 23.2674C76.5226 23.1949 76.522 23.0767 76.5945 23.0035L76.8569 22.7381C76.9294 22.6648 77.0477 22.6642 77.121 22.7368L78.7324 24.3334L77.1208 25.9309Z" fill="#FF5900"/>
<path d="M62.6592 33.5244V30.0034H63.5272L63.5062 30.7524C63.6602 30.2344 64.0522 29.9194 64.6192 29.9194C65.1792 29.9194 65.6062 30.2274 65.7882 30.7454C65.9492 30.2274 66.3552 29.9194 66.9362 29.9194C67.6852 29.9194 68.1892 30.4724 68.1892 31.3124V33.5244H67.3212V31.4874C67.3212 30.9414 67.0692 30.6194 66.6352 30.6194C66.1592 30.6194 65.8862 30.9904 65.8862 31.6414V33.5244H65.0182V31.4874C65.0182 30.9414 64.7592 30.6194 64.3042 30.6194C63.8072 30.6194 63.5272 30.9904 63.5272 31.6414V33.5244H62.6592Z" fill="#3B3A3B"/>
<path d="M60.2513 33.6154C59.1243 33.6154 58.3613 32.5864 58.3613 31.0744C58.3613 29.5624 59.1243 28.5334 60.2513 28.5334C61.3783 28.5334 62.1483 29.5624 62.1483 31.0744C62.1483 32.5864 61.3783 33.6154 60.2513 33.6154ZM60.2513 32.8454C60.8603 32.8454 61.2733 32.1244 61.2733 31.0744C61.2733 30.0244 60.8603 29.3034 60.2513 29.3034C59.6493 29.3034 59.2363 30.0244 59.2363 31.0744C59.2363 32.1244 59.6493 32.8454 60.2513 32.8454Z" fill="#3B3A3B"/>
<path d="M54.5824 32.8944C56.4584 31.3684 57.0394 30.7944 57.0394 30.1014C57.0394 29.5974 56.7244 29.2544 56.2624 29.2544C55.7724 29.2544 55.4364 29.6674 55.4364 30.2624L54.5684 30.2484C54.5684 29.2334 55.2334 28.4844 56.2834 28.4844C57.2844 28.4844 57.9284 29.1284 57.9284 30.0594C57.9284 30.9274 57.3194 31.7324 55.7234 32.8244H57.9074V33.5244H54.5824V32.8944Z" fill="#3B3A3B"/>
<path d="M50.8955 31.9214V31.2074H53.0095V31.9214H50.8955Z" fill="#3B3A3B"/>
<path d="M47.391 33.6154C46.264 33.6154 45.501 32.5864 45.501 31.0744C45.501 29.5624 46.264 28.5334 47.391 28.5334C48.518 28.5334 49.288 29.5624 49.288 31.0744C49.288 32.5864 48.518 33.6154 47.391 33.6154ZM47.391 32.8454C48 32.8454 48.413 32.1244 48.413 31.0744C48.413 30.0244 48 29.3034 47.391 29.3034C46.789 29.3034 46.376 30.0244 46.376 31.0744C46.376 32.1244 46.789 32.8454 47.391 32.8454Z" fill="#3B3A3B"/>
<path d="M44.0727 29.9124C43.8417 30.2834 43.4357 30.5004 42.8477 30.5004V29.7514C43.6527 29.7514 44.0727 29.2964 44.1497 28.5894H44.9407V33.5244H44.0727V29.9124Z" fill="#3B3A3B"/>
<path d="M9.54785 18.3627C9.54785 17.8104 9.99557 17.3627 10.5479 17.3627H30.3916C30.9439 17.3627 31.3916 17.8104 31.3916 18.3627V31.4189C31.3916 31.9712 30.9439 32.4189 30.3916 32.4189H10.5479C9.99557 32.4189 9.54785 31.9712 9.54785 31.4189V18.3627Z" fill="#002F87"/>
<path d="M10.7021 19.0952C10.7021 18.889 10.8693 18.7219 11.0755 18.7219H29.8638C30.07 18.7219 30.2372 18.889 30.2372 19.0952V23.1616C30.2372 23.3678 30.07 23.5349 29.8638 23.5349H11.0755C10.8693 23.5349 10.7021 23.3678 10.7021 23.1616V19.0952Z" fill="#0093F5"/>
<path d="M10.7021 26.8583C10.7021 26.7478 10.7917 26.6583 10.9021 26.6583H11.4172C11.5276 26.6583 11.6172 26.7478 11.6172 26.8583V28.3817C11.6172 28.4922 11.5276 28.5817 11.4172 28.5817H10.9021C10.7917 28.5817 10.7021 28.4922 10.7021 28.3817V26.8583Z" fill="#0093F5"/>
<path d="M12.1348 26.8583C12.1348 26.7478 12.2243 26.6583 12.3348 26.6583H12.8498C12.9603 26.6583 13.0498 26.7478 13.0498 26.8583V28.3817C13.0498 28.4922 12.9603 28.5817 12.8498 28.5817H12.3348C12.2243 28.5817 12.1348 28.4922 12.1348 28.3817V26.8583Z" fill="#0093F5"/>
<path d="M13.5674 26.8583C13.5674 26.7478 13.6569 26.6583 13.7674 26.6583H14.2824C14.3929 26.6583 14.4824 26.7478 14.4824 26.8583V28.3817C14.4824 28.4922 14.3929 28.5817 14.2824 28.5817H13.7674C13.6569 28.5817 13.5674 28.4922 13.5674 28.3817V26.8583Z" fill="#0093F5"/>
<path d="M16.4326 26.8583C16.4326 26.7478 16.5222 26.6583 16.6326 26.6583H17.1477C17.2581 26.6583 17.3477 26.7478 17.3477 26.8583V28.3817C17.3477 28.4922 17.2581 28.5817 17.1477 28.5817H16.6326C16.5222 28.5817 16.4326 28.4922 16.4326 28.3817V26.8583Z" fill="#0093F5"/>
<path d="M17.8652 26.8583C17.8652 26.7478 17.9548 26.6583 18.0652 26.6583H18.5803C18.6907 26.6583 18.7803 26.7478 18.7803 26.8583V28.3817C18.7803 28.4922 18.6907 28.5817 18.5803 28.5817H18.0652C17.9548 28.5817 17.8652 28.4922 17.8652 28.3817V26.8583Z" fill="#0093F5"/>
<path d="M19.2979 26.8583C19.2979 26.7478 19.3874 26.6583 19.4979 26.6583H20.0129C20.1233 26.6583 20.2129 26.7478 20.2129 26.8583V28.3817C20.2129 28.4922 20.1233 28.5817 20.0129 28.5817H19.4979C19.3874 28.5817 19.2979 28.4922 19.2979 28.3817V26.8583Z" fill="#0093F5"/>
<path d="M20.7305 26.8583C20.7305 26.7478 20.82 26.6583 20.9305 26.6583H21.4455C21.556 26.6583 21.6455 26.7478 21.6455 26.8583V28.3817C21.6455 28.4922 21.556 28.5817 21.4455 28.5817H20.9305C20.82 28.5817 20.7305 28.4922 20.7305 28.3817V26.8583Z" fill="#0093F5"/>
<path d="M22.1631 26.8583C22.1631 26.7478 22.2526 26.6583 22.3631 26.6583H22.8781C22.9886 26.6583 23.0781 26.7478 23.0781 26.8583V28.3817C23.0781 28.4922 22.9886 28.5817 22.8781 28.5817H22.3631C22.2526 28.5817 22.1631 28.4922 22.1631 28.3817V26.8583Z" fill="#0093F5"/>
<path d="M23.5957 26.8583C23.5957 26.7478 23.6852 26.6583 23.7957 26.6583H24.3107C24.4212 26.6583 24.5107 26.7478 24.5107 26.8583V28.3817C24.5107 28.4922 24.4212 28.5817 24.3107 28.5817H23.7957C23.6852 28.5817 23.5957 28.4922 23.5957 28.3817V26.8583Z" fill="#0093F5"/>
<path d="M26.4609 26.8583C26.4609 26.7478 26.5505 26.6583 26.6609 26.6583H27.176C27.2864 26.6583 27.376 26.7478 27.376 26.8583V28.3817C27.376 28.4922 27.2864 28.5817 27.176 28.5817H26.6609C26.5505 28.5817 26.4609 28.4922 26.4609 28.3817V26.8583Z" fill="#0093F5"/>
<path d="M27.8936 26.8583C27.8936 26.7478 27.9831 26.6583 28.0936 26.6583H28.6086C28.7191 26.6583 28.8086 26.7478 28.8086 26.8583V28.3817C28.8086 28.4922 28.7191 28.5817 28.6086 28.5817H28.0936C27.9831 28.5817 27.8936 28.4922 27.8936 28.3817V26.8583Z" fill="#0093F5"/>
<path d="M29.3262 26.8583C29.3262 26.7478 29.4157 26.6583 29.5262 26.6583H30.0412C30.1517 26.6583 30.2412 26.7478 30.2412 26.8583V28.3817C30.2412 28.4922 30.1517 28.5817 30.0412 28.5817H29.5262C29.4157 28.5817 29.3262 28.4922 29.3262 28.3817V26.8583Z" fill="#0093F5"/>
<path d="M82.0225 29.0586H84.0634L83.7293 32.3755C83.7097 32.5695 83.5465 32.7171 83.3515 32.7171H82.7344C82.5394 32.7171 82.3761 32.5695 82.3566 32.3755L82.0225 29.0586Z" fill="#47B6FF"/>
<path d="M84.3506 23.9077C84.5939 23.908 84.791 24.1058 84.791 24.3492V25.188C84.791 25.2907 84.7549 25.3902 84.6895 25.4693L84.2637 25.9839C84.1328 26.1421 84.0615 26.3411 84.0615 26.5464V29.4468H82.0264V26.5542C82.0264 26.3446 81.9514 26.1415 81.8154 25.982L81.3799 25.4702C81.3119 25.3904 81.2744 25.289 81.2744 25.1841V24.3492C81.2744 24.1057 81.4714 23.9079 81.7148 23.9077H84.3506Z" fill="#0093F5"/>
<path d="M95.7132 38.8212C96.8597 39.2249 101.269 40.7857 102.867 41.4779L100.914 43.6869C100.058 42.9644 98.2441 41.4395 97.8334 41.1201C97.4814 40.8463 96.1542 40.1897 95.2674 39.7682C95.0572 39.6683 94.9838 39.4054 95.1128 39.2118L95.2744 38.9695C95.3705 38.8253 95.5497 38.7636 95.7132 38.8212Z" fill="#0093F5"/>
<path fill-rule="evenodd" clip-rule="evenodd" d="M139.428 28.2536C141.149 28.3682 141.882 29.4744 142.496 31.0857L145.583 39.0577H145.752V36.6864C147.494 36.6865 148.906 38.0992 148.906 39.8415V40.2848H147.044C148.134 41.0244 149.537 41.9753 149.898 42.2157C150.315 42.4928 150.602 42.9262 150.674 43.421C150.702 43.615 150.738 43.8451 150.777 44.1042V44.1057C150.94 45.1786 150.937 47.3495 150.884 49.8712C151.231 50.0262 151.474 50.3742 151.474 50.779V63.3732C151.474 63.9223 151.029 64.3678 150.479 64.3678H146.503C145.953 64.3678 145.508 63.9223 145.508 63.3732V59.5217H104.921V63.3732C104.921 63.9223 104.476 64.3678 103.927 64.3678H99.9497C99.4005 64.3678 98.9551 63.9223 98.9551 63.3732V50.779C98.9553 50.2301 99.4007 49.7852 99.9497 49.7852H99.957C99.906 47.3002 99.9043 45.1664 100.066 44.1057C100.105 43.846 100.141 43.6153 100.169 43.421C100.241 42.9264 100.528 42.4928 100.944 42.2157C101.305 41.9754 102.709 41.0245 103.8 40.2848H101.242V39.8415C101.243 38.0992 102.655 36.6864 104.398 36.6864V39.0577H105.26L108.347 31.0857C108.961 29.4745 109.695 28.3682 111.415 28.2536C116.078 28.2535 131.527 28.2536 139.428 28.2536ZM114.611 55.6046C113.106 55.6047 111.693 56.332 110.819 57.5566C110.709 57.7108 110.819 57.9247 111.008 57.9248H139.038C139.228 57.9248 139.338 57.7108 139.228 57.5566C138.353 56.3321 136.941 55.6047 135.436 55.6046H114.611ZM115.757 50.7258C115.718 50.7259 115.686 50.758 115.686 50.7972V54.01C115.686 54.0491 115.718 54.0806 115.757 54.0807H133.63C133.669 54.0807 133.701 54.0491 133.701 54.01V50.7972C133.701 50.758 133.669 50.7258 133.63 50.7258H115.757ZM146.417 43.3313C146.247 43.3313 146.081 43.3912 145.949 43.4997L141.024 47.559C140.814 47.7318 140.858 48.0644 141.105 48.1773L142.99 49.0392C143.133 49.1046 143.294 49.1226 143.448 49.0903L148.272 48.0745C148.65 47.9949 148.902 47.6363 148.849 47.2535L148.391 43.9657C148.34 43.6022 148.03 43.3313 147.663 43.3313H146.417ZM102.85 42.3528C102.483 42.3529 102.172 42.6237 102.121 42.9871L101.662 46.275C101.609 46.6576 101.862 47.0163 102.24 47.096L107.064 48.1117C107.218 48.1441 107.378 48.126 107.521 48.0607L109.407 47.1988C109.654 47.0859 109.697 46.7532 109.488 46.5805L104.563 42.5212C104.431 42.4127 104.266 42.3528 104.095 42.3528H102.85ZM111.37 29.4523C110.82 29.4524 110.312 29.7267 110.096 30.2326C109.511 31.6049 108.896 33.9452 107.97 36.1045C107.568 37.0414 107.233 37.9806 106.968 38.7952C106.598 39.9319 107.427 41.0962 108.56 41.0964H142.353C143.486 41.0964 144.315 39.932 143.945 38.7952C143.68 37.9806 143.345 37.0414 142.943 36.1045C142.016 33.9452 141.401 31.6048 140.817 30.2326C140.601 29.7268 140.091 29.4523 139.541 29.4523H111.37Z" fill="#004ECC"/>
<path d="M108.669 41.1028H125.492L127.054 29.3528H111.105C110.697 29.3528 110.33 29.6012 110.177 29.9801L106.813 38.3575C106.285 39.6716 107.253 41.1028 108.669 41.1028Z" fill="#99D6FF"/>
<path d="M77.6445 23.9605V24.7066H32.3379V23.9605H77.6445Z" fill="#FF5900"/>
<path d="M33.3021 22.7362C33.3753 22.6637 33.4934 22.6642 33.566 22.7374L33.8289 23.0024C33.9015 23.0756 33.901 23.1938 33.8278 23.2664L32.7506 24.3344L33.827 25.3997C33.9002 25.4722 33.9009 25.5904 33.8284 25.6637L33.566 25.929C33.4934 26.0023 33.3752 26.0029 33.3019 25.9303L31.6904 24.3337L33.3021 22.7362Z" fill="#FF5900"/>
</g>
</g>
<defs>
<clipPath id="clip0_149_4169">
<rect y="0.769409" width="112" height="74" rx="10" fill="white"/>
</clipPath>
<clipPath id="clip1_149_4169">
<rect x="-0.0996094" y="0.936066" width="112" height="74.6667" rx="8" fill="white"/>
</clipPath>
</defs>
</svg>
