<svg width="112" height="75" viewBox="0 0 112 75" fill="none" xmlns="http://www.w3.org/2000/svg">
<g clip-path="url(#clip0_143_4061)">
<g clip-path="url(#clip1_143_4061)">
<rect width="112" height="74.6667" transform="translate(-0.0996094 0.936066)" fill="#EBF7FF"/>
<path d="M82.414 38.9966C83.0979 38.9827 83.8163 39.2065 84.4697 39.5024C85.1256 39.7996 85.7322 40.176 86.1933 40.4819C86.4228 40.6342 86.621 40.7721 86.7665 40.8706C86.8406 40.9207 86.9002 40.9606 86.9462 40.9888C86.9994 41.0213 87.0143 41.0267 87.0077 41.0249L86.9579 41.2046L86.9072 41.3843C86.8556 41.3698 86.7973 41.3355 86.7509 41.3071C86.6972 41.2742 86.631 41.2306 86.5566 41.1802C86.4052 41.0777 86.2145 40.9449 85.9863 40.7935C85.5315 40.4917 84.9454 40.1273 84.3163 39.8423C83.6848 39.5562 83.0247 39.3573 82.4208 39.3696C81.8265 39.3819 81.2839 39.598 80.8603 40.1558C80.6503 40.4323 80.4262 40.9447 80.2011 41.6558C79.9778 42.361 79.7599 43.2429 79.5556 44.2407C79.1472 46.2359 78.7951 48.6862 78.5644 51.106C78.3336 53.5263 78.2238 55.91 78.2978 57.7729C78.3348 58.7051 78.4177 59.5005 78.5517 60.1021C78.5728 60.1969 78.5957 60.2866 78.6191 60.3706C79.1621 60.3639 79.7126 60.4377 80.4804 60.5581C81.0773 60.6517 81.4806 60.8501 81.6767 61.1108C81.7778 61.2453 81.8248 61.3994 81.8036 61.5552C81.7826 61.7092 81.698 61.8428 81.5781 61.9448C81.3414 62.146 80.9525 62.2422 80.4892 62.1919C80.0206 62.1409 79.4578 61.9392 78.8466 61.5161C78.6817 61.4019 78.5528 61.2179 78.4491 60.9976C78.4137 60.9222 78.3818 60.8404 78.3505 60.7534C78.1815 60.765 78.0098 60.7859 77.8281 60.8169C76.988 60.9601 75.9252 61.3213 73.874 62.0278C71.789 62.7459 69.3815 62.6815 67.5683 62.3325C66.6616 62.158 65.8907 61.9094 65.3759 61.644C65.1213 61.5128 64.9124 61.3692 64.7851 61.2153C64.7205 61.1373 64.6694 61.0467 64.6513 60.9458C64.6324 60.8399 64.6534 60.7357 64.7118 60.6431C64.7689 60.5529 64.8553 60.4851 64.9482 60.4331C65.0426 60.3803 65.1563 60.3366 65.2812 60.2983C65.5306 60.222 65.85 60.1627 66.2109 60.1108C66.9289 60.0076 67.8638 59.9279 68.7968 59.8159C69.7392 59.7028 70.6955 59.5547 71.498 59.313C72.3083 59.0689 72.9226 58.7403 73.2245 58.2935C73.8955 57.3004 74.0444 56.1528 73.8759 54.8472C73.7067 53.537 73.2198 52.086 72.6376 50.4995C71.4785 47.3411 69.9462 43.668 69.9462 39.6792C69.9462 38.1525 69.9088 36.4843 69.8759 35.0171C69.8431 33.5531 69.8147 32.2838 69.8339 31.562L70.207 31.5718C70.188 32.282 70.216 33.5398 70.249 35.0093C70.2818 36.4755 70.3202 38.1476 70.3202 39.6792C70.3202 43.5861 71.8198 47.1868 72.9882 50.3706C73.5697 51.9551 74.0708 53.4425 74.246 54.7993C74.4218 56.1608 74.2716 57.4095 73.5331 58.5024C73.1553 59.0615 72.4337 59.4211 71.6064 59.6704C70.7712 59.922 69.7874 60.0734 68.8407 60.187C67.8847 60.3018 66.9807 60.377 66.2646 60.48C65.9086 60.5312 65.6119 60.5881 65.3906 60.6558C65.28 60.6896 65.1937 60.7241 65.1308 60.7593C65.0669 60.7951 65.0385 60.8247 65.0273 60.8423C65.0176 60.8576 65.0163 60.8679 65.0185 60.8804C65.0217 60.8979 65.0344 60.9302 65.0732 60.9771C65.1527 61.0732 65.3083 61.189 65.5468 61.312C66.019 61.5554 66.7523 61.7947 67.6386 61.9653C69.4114 62.3066 71.7489 62.3646 73.7529 61.6743C75.7899 60.9727 76.8879 60.5983 77.7656 60.4487C77.9288 60.4209 78.0848 60.4022 78.2372 60.3892C78.2199 60.3227 78.2032 60.2538 78.1874 60.1831C78.0465 59.5504 77.9632 58.7304 77.9257 57.7886C77.8507 55.9027 77.9607 53.5003 78.1923 51.0708C78.4241 48.6405 78.7778 46.1762 79.1894 44.1655C79.3952 43.1604 79.6161 42.2654 79.8447 41.5435C80.0713 40.8277 80.3116 40.2617 80.5634 39.9302C81.0646 39.2703 81.7203 39.0107 82.414 38.9966ZM78.787 60.8384C78.8768 61.0293 78.97 61.147 79.0585 61.2085C79.6283 61.6029 80.1333 61.7777 80.5292 61.8208C80.9305 61.8644 81.2034 61.7723 81.3359 61.6597C81.4005 61.6047 81.4273 61.5499 81.4335 61.5044C81.4394 61.4605 81.4292 61.4037 81.3779 61.3354C81.2687 61.1904 80.9843 61.0153 80.4228 60.9272C79.7189 60.8168 79.2171 60.7482 78.746 60.7427C78.7597 60.7759 78.7728 60.8081 78.787 60.8384Z" fill="#0093F5"/>
<path d="M-13.54 57.6651L-13.54 57.2921L71.0674 57.2921L71.0674 57.6651L-13.54 57.6651Z" fill="#004ECC"/>
<path d="M80.459 57.2921L90.6787 57.2286L90.6807 57.6016L80.4609 57.6651L80.459 57.2921Z" fill="#004ECC"/>
<path d="M66.1025 19.6727C66.1025 18.8866 66.7398 18.2494 67.5258 18.2494H72.4612C73.2472 18.2494 73.8844 18.8866 73.8844 19.6727V28.9908C73.8844 29.7768 73.2472 30.414 72.4612 30.414H67.5258C66.7398 30.414 66.1025 29.7768 66.1025 28.9908V19.6727Z" fill="#002F87"/>
<path d="M72.5506 24.893C72.5506 26.2779 71.4278 27.4007 70.0429 27.4007C68.6579 27.4007 67.5352 26.2779 67.5352 24.893C67.5352 23.508 68.6579 22.3853 70.0429 22.3853C71.4278 22.3853 72.5506 23.508 72.5506 24.893Z" fill="#F4F4FE"/>
<path d="M64.1208 25.9309C64.0476 26.0035 63.9294 26.003 63.8568 25.9298L63.594 25.6647C63.5214 25.5915 63.5219 25.4733 63.5951 25.4007L64.6722 24.3327L63.5959 23.2674C63.5226 23.1949 63.522 23.0767 63.5945 23.0035L63.8569 22.7381C63.9294 22.6648 64.0477 22.6642 64.121 22.7368L65.7324 24.3334L64.1208 25.9309Z" fill="#FF5900"/>
<path d="M53.916 33.5244V30.0034H54.784L54.763 30.7524C54.917 30.2344 55.309 29.9194 55.876 29.9194C56.436 29.9194 56.863 30.2274 57.045 30.7454C57.206 30.2274 57.612 29.9194 58.193 29.9194C58.942 29.9194 59.446 30.4724 59.446 31.3124V33.5244H58.578V31.4874C58.578 30.9414 58.326 30.6194 57.892 30.6194C57.416 30.6194 57.143 30.9904 57.143 31.6414V33.5244H56.275V31.4874C56.275 30.9414 56.016 30.6194 55.561 30.6194C55.064 30.6194 54.784 30.9904 54.784 31.6414V33.5244H53.916Z" fill="#3B3A3B"/>
<path d="M51.5072 33.6154C50.3802 33.6154 49.6172 32.5864 49.6172 31.0744C49.6172 29.5624 50.3802 28.5334 51.5072 28.5334C52.6342 28.5334 53.4042 29.5624 53.4042 31.0744C53.4042 32.5864 52.6342 33.6154 51.5072 33.6154ZM51.5072 32.8454C52.1162 32.8454 52.5292 32.1244 52.5292 31.0744C52.5292 30.0244 52.1162 29.3034 51.5072 29.3034C50.9052 29.3034 50.4922 30.0244 50.4922 31.0744C50.4922 32.1244 50.9052 32.8454 51.5072 32.8454Z" fill="#3B3A3B"/>
<path d="M48.1898 29.9124C47.9588 30.2834 47.5528 30.5004 46.9648 30.5004V29.7514C47.7698 29.7514 48.1898 29.2964 48.2668 28.5894H49.0578V33.5244H48.1898V29.9124Z" fill="#3B3A3B"/>
<path d="M43.3555 31.9214V31.2074H45.4695V31.9214H43.3555Z" fill="#3B3A3B"/>
<path d="M39.85 33.6154C38.723 33.6154 37.96 32.5864 37.96 31.0744C37.96 29.5624 38.723 28.5334 39.85 28.5334C40.977 28.5334 41.747 29.5624 41.747 31.0744C41.747 32.5864 40.977 33.6154 39.85 33.6154ZM39.85 32.8454C40.459 32.8454 40.872 32.1244 40.872 31.0744C40.872 30.0244 40.459 29.3034 39.85 29.3034C39.248 29.3034 38.835 30.0244 38.835 31.0744C38.835 32.1244 39.248 32.8454 39.85 32.8454Z" fill="#3B3A3B"/>
<path d="M9.54785 18.3627C9.54785 17.8104 9.99557 17.3627 10.5479 17.3627H30.3916C30.9439 17.3627 31.3916 17.8104 31.3916 18.3627V31.4189C31.3916 31.9712 30.9439 32.4189 30.3916 32.4189H10.5479C9.99557 32.4189 9.54785 31.9712 9.54785 31.4189V18.3627Z" fill="#002F87"/>
<path d="M10.7021 19.0952C10.7021 18.889 10.8693 18.7219 11.0755 18.7219H29.8638C30.07 18.7219 30.2372 18.889 30.2372 19.0952V23.1616C30.2372 23.3678 30.07 23.5349 29.8638 23.5349H11.0755C10.8693 23.5349 10.7021 23.3678 10.7021 23.1616V19.0952Z" fill="#0093F5"/>
<path d="M10.7021 26.8583C10.7021 26.7478 10.7917 26.6583 10.9021 26.6583H11.4172C11.5276 26.6583 11.6172 26.7478 11.6172 26.8583V28.3817C11.6172 28.4922 11.5276 28.5817 11.4172 28.5817H10.9021C10.7917 28.5817 10.7021 28.4922 10.7021 28.3817V26.8583Z" fill="#0093F5"/>
<path d="M12.1348 26.8583C12.1348 26.7478 12.2243 26.6583 12.3348 26.6583H12.8498C12.9603 26.6583 13.0498 26.7478 13.0498 26.8583V28.3817C13.0498 28.4922 12.9603 28.5817 12.8498 28.5817H12.3348C12.2243 28.5817 12.1348 28.4922 12.1348 28.3817V26.8583Z" fill="#0093F5"/>
<path d="M13.5674 26.8583C13.5674 26.7478 13.6569 26.6583 13.7674 26.6583H14.2824C14.3929 26.6583 14.4824 26.7478 14.4824 26.8583V28.3817C14.4824 28.4922 14.3929 28.5817 14.2824 28.5817H13.7674C13.6569 28.5817 13.5674 28.4922 13.5674 28.3817V26.8583Z" fill="#0093F5"/>
<path d="M16.4326 26.8583C16.4326 26.7478 16.5222 26.6583 16.6326 26.6583H17.1477C17.2581 26.6583 17.3477 26.7478 17.3477 26.8583V28.3817C17.3477 28.4922 17.2581 28.5817 17.1477 28.5817H16.6326C16.5222 28.5817 16.4326 28.4922 16.4326 28.3817V26.8583Z" fill="#0093F5"/>
<path d="M17.8652 26.8583C17.8652 26.7478 17.9548 26.6583 18.0652 26.6583H18.5803C18.6907 26.6583 18.7803 26.7478 18.7803 26.8583V28.3817C18.7803 28.4922 18.6907 28.5817 18.5803 28.5817H18.0652C17.9548 28.5817 17.8652 28.4922 17.8652 28.3817V26.8583Z" fill="#0093F5"/>
<path d="M19.2979 26.8583C19.2979 26.7478 19.3874 26.6583 19.4979 26.6583H20.0129C20.1233 26.6583 20.2129 26.7478 20.2129 26.8583V28.3817C20.2129 28.4922 20.1233 28.5817 20.0129 28.5817H19.4979C19.3874 28.5817 19.2979 28.4922 19.2979 28.3817V26.8583Z" fill="#0093F5"/>
<path d="M20.7305 26.8583C20.7305 26.7478 20.82 26.6583 20.9305 26.6583H21.4455C21.556 26.6583 21.6455 26.7478 21.6455 26.8583V28.3817C21.6455 28.4922 21.556 28.5817 21.4455 28.5817H20.9305C20.82 28.5817 20.7305 28.4922 20.7305 28.3817V26.8583Z" fill="#0093F5"/>
<path d="M22.1631 26.8583C22.1631 26.7478 22.2526 26.6583 22.3631 26.6583H22.8781C22.9886 26.6583 23.0781 26.7478 23.0781 26.8583V28.3817C23.0781 28.4922 22.9886 28.5817 22.8781 28.5817H22.3631C22.2526 28.5817 22.1631 28.4922 22.1631 28.3817V26.8583Z" fill="#0093F5"/>
<path d="M23.5957 26.8583C23.5957 26.7478 23.6852 26.6583 23.7957 26.6583H24.3107C24.4212 26.6583 24.5107 26.7478 24.5107 26.8583V28.3817C24.5107 28.4922 24.4212 28.5817 24.3107 28.5817H23.7957C23.6852 28.5817 23.5957 28.4922 23.5957 28.3817V26.8583Z" fill="#0093F5"/>
<path d="M26.4609 26.8583C26.4609 26.7478 26.5505 26.6583 26.6609 26.6583H27.176C27.2864 26.6583 27.376 26.7478 27.376 26.8583V28.3817C27.376 28.4922 27.2864 28.5817 27.176 28.5817H26.6609C26.5505 28.5817 26.4609 28.4922 26.4609 28.3817V26.8583Z" fill="#0093F5"/>
<path d="M27.8936 26.8583C27.8936 26.7478 27.9831 26.6583 28.0936 26.6583H28.6086C28.7191 26.6583 28.8086 26.7478 28.8086 26.8583V28.3817C28.8086 28.4922 28.7191 28.5817 28.6086 28.5817H28.0936C27.9831 28.5817 27.8936 28.4922 27.8936 28.3817V26.8583Z" fill="#0093F5"/>
<path d="M29.3262 26.8583C29.3262 26.7478 29.4157 26.6583 29.5262 26.6583H30.0412C30.1517 26.6583 30.2412 26.7478 30.2412 26.8583V28.3817C30.2412 28.4922 30.1517 28.5817 30.0412 28.5817H29.5262C29.4157 28.5817 29.3262 28.4922 29.3262 28.3817V26.8583Z" fill="#0093F5"/>
<path d="M69.0225 29.0586H71.0634L70.7293 32.3755C70.7097 32.5695 70.5465 32.7171 70.3515 32.7171H69.7344C69.5394 32.7171 69.3761 32.5695 69.3566 32.3755L69.0225 29.0586Z" fill="#47B6FF"/>
<path d="M71.3506 23.9077C71.5939 23.908 71.791 24.1058 71.791 24.3492V25.188C71.791 25.2907 71.7549 25.3902 71.6895 25.4693L71.2637 25.9839C71.1328 26.1421 71.0615 26.3411 71.0615 26.5464V29.4468H69.0264V26.5542C69.0264 26.3446 68.9514 26.1415 68.8154 25.982L68.3799 25.4702C68.3119 25.3904 68.2744 25.289 68.2744 25.1841V24.3492C68.2744 24.1057 68.4714 23.9079 68.7148 23.9077H71.3506Z" fill="#0093F5"/>
<path d="M82.7132 38.8212C83.8597 39.2248 88.2688 40.7857 89.8674 41.4778L87.9136 43.6868C87.058 42.9643 85.2441 41.4395 84.8334 41.12C84.4814 40.8462 83.1542 40.1896 82.2674 39.7682C82.0572 39.6683 81.9838 39.4054 82.1128 39.2118L82.2744 38.9695C82.3705 38.8252 82.5497 38.7636 82.7132 38.8212Z" fill="#0093F5"/>
<path fill-rule="evenodd" clip-rule="evenodd" d="M126.428 28.2536C128.149 28.3682 128.882 29.4744 129.496 31.0857L132.583 39.0577H132.752V36.6864C134.494 36.6865 135.906 38.0992 135.906 39.8415V40.2848H134.044C135.134 41.0244 136.537 41.9753 136.898 42.2157C137.315 42.4928 137.602 42.9262 137.674 43.421C137.702 43.615 137.738 43.8451 137.777 44.1042V44.1057C137.94 45.1786 137.937 47.3495 137.884 49.8712C138.231 50.0262 138.474 50.3742 138.474 50.779V63.3732C138.474 63.9223 138.029 64.3678 137.479 64.3678H133.503C132.953 64.3678 132.508 63.9223 132.508 63.3732V59.5217H91.9211V63.3732C91.9211 63.9223 91.4757 64.3678 90.9265 64.3678H86.9497C86.4005 64.3678 85.9551 63.9223 85.9551 63.3732V50.779C85.9553 50.2301 86.4007 49.7852 86.9497 49.7852H86.957C86.906 47.3002 86.9043 45.1664 87.0656 44.1057C87.1051 43.846 87.1408 43.6153 87.1691 43.421C87.2415 42.9264 87.5282 42.4928 87.9442 42.2157C88.3052 41.9754 89.7089 41.0245 90.7997 40.2848H88.2425V39.8415C88.2425 38.0992 89.6552 36.6864 91.3976 36.6864V39.0577H92.2602L95.3475 31.0857C95.9614 29.4745 96.6946 28.3682 98.4151 28.2536C103.078 28.2535 118.527 28.2536 126.428 28.2536ZM101.611 55.6046C100.106 55.6047 98.6934 56.332 97.8186 57.5566C97.7087 57.7108 97.8189 57.9247 98.0082 57.9248H126.038C126.228 57.9248 126.338 57.7108 126.228 57.5566C125.353 56.3321 123.941 55.6047 122.436 55.6046H101.611ZM102.757 50.7258C102.718 50.7259 102.686 50.758 102.686 50.7972V54.01C102.686 54.0491 102.718 54.0806 102.757 54.0807H120.63C120.669 54.0807 120.701 54.0491 120.701 54.01V50.7972C120.701 50.758 120.669 50.7258 120.63 50.7258H102.757ZM133.417 43.3313C133.247 43.3313 133.081 43.3912 132.949 43.4997L128.024 47.559C127.814 47.7318 127.858 48.0644 128.105 48.1773L129.99 49.0392C130.133 49.1046 130.294 49.1226 130.448 49.0903L135.272 48.0745C135.65 47.9949 135.902 47.6363 135.849 47.2535L135.391 43.9657C135.34 43.6022 135.03 43.3313 134.663 43.3313H133.417ZM89.8496 42.3528C89.4826 42.3529 89.1718 42.6237 89.1211 42.9871L88.6625 46.275C88.6093 46.6576 88.8619 47.0163 89.24 47.096L94.0641 48.1117C94.218 48.1441 94.3783 48.126 94.5213 48.0607L96.407 47.1988C96.654 47.0859 96.6975 46.7532 96.4879 46.5805L91.5631 42.5212C91.4314 42.4127 91.2656 42.3528 91.095 42.3528H89.8496ZM98.3699 29.4523C97.82 29.4524 97.3116 29.7267 97.096 30.2326C96.5113 31.6049 95.8963 33.9452 94.9698 36.1045C94.5678 37.0414 94.2331 37.9806 93.9679 38.7952C93.598 39.9319 94.4266 41.0962 95.5597 41.0964H129.353C130.486 41.0964 131.315 39.932 130.945 38.7952C130.68 37.9806 130.345 37.0414 129.943 36.1045C129.016 33.9452 128.401 31.6048 127.817 30.2326C127.601 29.7268 127.091 29.4523 126.541 29.4523H98.3699Z" fill="#004ECC"/>
<path d="M95.669 41.1028H112.492L114.054 29.3528H98.1053C97.6969 29.3528 97.3295 29.6012 97.1773 29.9801L93.813 38.3575C93.2853 39.6716 94.2529 41.1028 95.669 41.1028Z" fill="#99D6FF"/>
<path d="M64.8311 23.9605V24.7066H32.3379V23.9605H64.8311Z" fill="#FF5900"/>
<path d="M33.3021 22.7362C33.3753 22.6637 33.4934 22.6642 33.566 22.7374L33.8289 23.0024C33.9015 23.0756 33.901 23.1938 33.8278 23.2664L32.7506 24.3344L33.827 25.3997C33.9002 25.4722 33.9009 25.5904 33.8284 25.6637L33.566 25.929C33.4934 26.0023 33.3752 26.0029 33.3019 25.9303L31.6904 24.3337L33.3021 22.7362Z" fill="#FF5900"/>
</g>
</g>
<defs>
<clipPath id="clip0_143_4061">
<rect y="0.769409" width="112" height="74" rx="8" fill="white"/>
</clipPath>
<clipPath id="clip1_143_4061">
<rect width="112" height="74.6667" fill="white" transform="translate(-0.0996094 0.936066)"/>
</clipPath>
</defs>
</svg>
