<svg width="112" height="75" viewBox="0 0 112 75" fill="none" xmlns="http://www.w3.org/2000/svg">
<g clip-path="url(#clip0_149_4219)">
<g clip-path="url(#clip1_149_4219)">
<rect x="-0.0996094" y="0.936066" width="112" height="74.6667" rx="8" fill="#EBF7FF"/>
<path d="M118.414 38.9966C119.098 38.9827 119.816 39.2065 120.47 39.5024C121.126 39.7996 121.732 40.176 122.193 40.4819C122.423 40.6342 122.621 40.7721 122.767 40.8706C122.841 40.9207 122.9 40.9606 122.946 40.9888C122.999 41.0213 123.014 41.0267 123.008 41.0249L122.958 41.2046L122.907 41.3843C122.856 41.3698 122.797 41.3355 122.751 41.3071C122.697 41.2742 122.631 41.2306 122.557 41.1802C122.405 41.0777 122.214 40.9449 121.986 40.7935C121.531 40.4917 120.945 40.1273 120.316 39.8423C119.685 39.5562 119.025 39.3573 118.421 39.3696C117.827 39.3819 117.284 39.598 116.86 40.1558C116.65 40.4323 116.426 40.9447 116.201 41.6558C115.978 42.361 115.76 43.2429 115.556 44.2407C115.147 46.2359 114.795 48.6862 114.564 51.106C114.334 53.5263 114.224 55.91 114.298 57.7729C114.335 58.7051 114.418 59.5005 114.552 60.1021C114.573 60.1969 114.596 60.2866 114.619 60.3706C115.162 60.3639 115.713 60.4377 116.48 60.5581C117.077 60.6517 117.481 60.8501 117.677 61.1108C117.778 61.2453 117.825 61.3994 117.804 61.5552C117.783 61.7092 117.698 61.8428 117.578 61.9448C117.341 62.146 116.952 62.2422 116.489 62.1919C116.021 62.1409 115.458 61.9392 114.847 61.5161C114.682 61.4019 114.553 61.2179 114.449 60.9976C114.414 60.9222 114.382 60.8404 114.351 60.7534C114.182 60.765 114.01 60.7859 113.828 60.8169C112.988 60.9601 111.925 61.3213 109.874 62.0278C107.789 62.7459 105.381 62.6815 103.568 62.3325C102.662 62.158 101.891 61.9094 101.376 61.644C101.121 61.5128 100.912 61.3692 100.785 61.2153C100.721 61.1373 100.669 61.0467 100.651 60.9458C100.632 60.8399 100.653 60.7357 100.712 60.6431C100.769 60.5529 100.855 60.4851 100.948 60.4331C101.043 60.3803 101.156 60.3366 101.281 60.2983C101.531 60.222 101.85 60.1627 102.211 60.1108C102.929 60.0076 103.864 59.9279 104.797 59.8159C105.739 59.7028 106.696 59.5547 107.498 59.313C108.308 59.0689 108.923 58.7403 109.225 58.2935C109.895 57.3004 110.044 56.1528 109.876 54.8472C109.707 53.537 109.22 52.086 108.638 50.4995C107.478 47.3411 105.946 43.668 105.946 39.6792C105.946 38.1525 105.909 36.4843 105.876 35.0171C105.843 33.5531 105.815 32.2838 105.834 31.562L106.207 31.5718C106.188 32.282 106.216 33.5398 106.249 35.0093C106.282 36.4755 106.32 38.1476 106.32 39.6792C106.32 43.5861 107.82 47.1868 108.988 50.3706C109.57 51.9551 110.071 53.4425 110.246 54.7993C110.422 56.1608 110.272 57.4095 109.533 58.5024C109.155 59.0615 108.434 59.4211 107.606 59.6704C106.771 59.922 105.787 60.0734 104.841 60.187C103.885 60.3018 102.981 60.377 102.265 60.48C101.909 60.5312 101.612 60.5881 101.391 60.6558C101.28 60.6896 101.194 60.7241 101.131 60.7593C101.067 60.7951 101.038 60.8247 101.027 60.8423C101.018 60.8576 101.016 60.8679 101.018 60.8804C101.022 60.8979 101.034 60.9302 101.073 60.9771C101.153 61.0732 101.308 61.189 101.547 61.312C102.019 61.5554 102.752 61.7947 103.639 61.9653C105.411 62.3066 107.749 62.3646 109.753 61.6743C111.79 60.9727 112.888 60.5983 113.766 60.4487C113.929 60.4209 114.085 60.4022 114.237 60.3892C114.22 60.3227 114.203 60.2538 114.187 60.1831C114.047 59.5504 113.963 58.7304 113.926 57.7886C113.851 55.9027 113.961 53.5003 114.192 51.0708C114.424 48.6405 114.778 46.1762 115.189 44.1655C115.395 43.1604 115.616 42.2654 115.845 41.5435C116.071 40.8277 116.312 40.2617 116.563 39.9302C117.065 39.2703 117.72 39.0107 118.414 38.9966ZM114.787 60.8384C114.877 61.0293 114.97 61.147 115.059 61.2085C115.628 61.6029 116.133 61.7777 116.529 61.8208C116.93 61.8644 117.203 61.7723 117.336 61.6597C117.4 61.6047 117.427 61.5499 117.434 61.5044C117.439 61.4605 117.429 61.4037 117.378 61.3354C117.269 61.1904 116.984 61.0153 116.423 60.9272C115.719 60.8168 115.217 60.7482 114.746 60.7427C114.76 60.7759 114.773 60.8081 114.787 60.8384Z" fill="#0093F5"/>
<path d="M-13.54 57.7116L-13.54 57.2456L107.063 57.2455L107.063 57.7116L-13.54 57.7116Z" fill="#004ECC"/>
<path d="M102.103 19.6727C102.103 18.8866 102.74 18.2494 103.526 18.2494H108.461C109.247 18.2494 109.884 18.8866 109.884 19.6727V28.9908C109.884 29.7768 109.247 30.414 108.461 30.414H103.526C102.74 30.414 102.103 29.7768 102.103 28.9908V19.6727Z" fill="#002F87"/>
<path d="M108.551 24.893C108.551 26.2779 107.428 27.4007 106.043 27.4007C104.658 27.4007 103.535 26.2779 103.535 24.893C103.535 23.508 104.658 22.3853 106.043 22.3853C107.428 22.3853 108.551 23.508 108.551 24.893Z" fill="#F4F4FE"/>
<path d="M100.121 25.9309C100.048 26.0035 99.9294 26.003 99.8568 25.9298L99.594 25.6647C99.5214 25.5915 99.5219 25.4733 99.5951 25.4007L100.672 24.3327L99.5959 23.2674C99.5226 23.1949 99.522 23.0767 99.5945 23.0035L99.8569 22.7381C99.9294 22.6648 100.048 22.6642 100.121 22.7368L101.732 24.3334L100.121 25.9309Z" fill="#FF5900"/>
<path d="M105.022 29.0586H107.063L106.729 32.3755C106.71 32.5695 106.546 32.7171 106.351 32.7171H105.734C105.539 32.7171 105.376 32.5695 105.357 32.3755L105.022 29.0586Z" fill="#47B6FF"/>
<path d="M107.351 23.9077C107.594 23.908 107.791 24.1058 107.791 24.3492V25.188C107.791 25.2907 107.755 25.3902 107.689 25.4693L107.264 25.9839C107.133 26.1421 107.062 26.3411 107.062 26.5464V29.4468H105.026V26.5542C105.026 26.3446 104.951 26.1415 104.815 25.982L104.38 25.4702C104.312 25.3904 104.274 25.289 104.274 25.1841V24.3492C104.274 24.1057 104.471 23.9079 104.715 23.9077H107.351Z" fill="#0093F5"/>
<path d="M71.3606 33.117V31.871H70.1426V31.199H71.3606V29.953H72.1376V31.199H73.3556V31.871H72.1376V33.117H71.3606Z" fill="#3B3A3B"/>
<path d="M67.8441 34.076C66.7171 34.076 65.9541 33.047 65.9541 31.535C65.9541 30.023 66.7171 28.994 67.8441 28.994C68.9711 28.994 69.7411 30.023 69.7411 31.535C69.7411 33.047 68.9711 34.076 67.8441 34.076ZM67.8441 33.306C68.4531 33.306 68.8661 32.585 68.8661 31.535C68.8661 30.485 68.4531 29.764 67.8441 29.764C67.2421 29.764 66.8291 30.485 66.8291 31.535C66.8291 32.585 67.2421 33.306 67.8441 33.306Z" fill="#3B3A3B"/>
<path d="M62.1751 33.355C64.0511 31.829 64.6321 31.255 64.6321 30.562C64.6321 30.058 64.3171 29.715 63.8551 29.715C63.3651 29.715 63.0291 30.128 63.0291 30.723L62.1611 30.709C62.1611 29.694 62.8261 28.945 63.8761 28.945C64.8771 28.945 65.5211 29.589 65.5211 30.52C65.5211 31.388 64.9121 32.193 63.3161 33.285H65.5001V33.985H62.1751V33.355Z" fill="#3B3A3B"/>
<path d="M9.54785 18.3627C9.54785 17.8104 9.99557 17.3627 10.5479 17.3627H30.3916C30.9439 17.3627 31.3916 17.8104 31.3916 18.3627V31.4189C31.3916 31.9712 30.9439 32.4189 30.3916 32.4189H10.5479C9.99557 32.4189 9.54785 31.9712 9.54785 31.4189V18.3627Z" fill="#002F87"/>
<path d="M10.7021 19.0952C10.7021 18.889 10.8693 18.7219 11.0755 18.7219H29.8638C30.07 18.7219 30.2372 18.889 30.2372 19.0952V23.1616C30.2372 23.3678 30.07 23.5349 29.8638 23.5349H11.0755C10.8693 23.5349 10.7021 23.3678 10.7021 23.1616V19.0952Z" fill="#0093F5"/>
<path d="M10.7021 26.8583C10.7021 26.7478 10.7917 26.6583 10.9021 26.6583H11.4172C11.5276 26.6583 11.6172 26.7478 11.6172 26.8583V28.3817C11.6172 28.4922 11.5276 28.5817 11.4172 28.5817H10.9021C10.7917 28.5817 10.7021 28.4922 10.7021 28.3817V26.8583Z" fill="#0093F5"/>
<path d="M12.1348 26.8583C12.1348 26.7478 12.2243 26.6583 12.3348 26.6583H12.8498C12.9603 26.6583 13.0498 26.7478 13.0498 26.8583V28.3817C13.0498 28.4922 12.9603 28.5817 12.8498 28.5817H12.3348C12.2243 28.5817 12.1348 28.4922 12.1348 28.3817V26.8583Z" fill="#0093F5"/>
<path d="M13.5674 26.8583C13.5674 26.7478 13.6569 26.6583 13.7674 26.6583H14.2824C14.3929 26.6583 14.4824 26.7478 14.4824 26.8583V28.3817C14.4824 28.4922 14.3929 28.5817 14.2824 28.5817H13.7674C13.6569 28.5817 13.5674 28.4922 13.5674 28.3817V26.8583Z" fill="#0093F5"/>
<path d="M16.4326 26.8583C16.4326 26.7478 16.5222 26.6583 16.6326 26.6583H17.1477C17.2581 26.6583 17.3477 26.7478 17.3477 26.8583V28.3817C17.3477 28.4922 17.2581 28.5817 17.1477 28.5817H16.6326C16.5222 28.5817 16.4326 28.4922 16.4326 28.3817V26.8583Z" fill="#0093F5"/>
<path d="M17.8652 26.8583C17.8652 26.7478 17.9548 26.6583 18.0652 26.6583H18.5803C18.6907 26.6583 18.7803 26.7478 18.7803 26.8583V28.3817C18.7803 28.4922 18.6907 28.5817 18.5803 28.5817H18.0652C17.9548 28.5817 17.8652 28.4922 17.8652 28.3817V26.8583Z" fill="#0093F5"/>
<path d="M19.2979 26.8583C19.2979 26.7478 19.3874 26.6583 19.4979 26.6583H20.0129C20.1233 26.6583 20.2129 26.7478 20.2129 26.8583V28.3817C20.2129 28.4922 20.1233 28.5817 20.0129 28.5817H19.4979C19.3874 28.5817 19.2979 28.4922 19.2979 28.3817V26.8583Z" fill="#0093F5"/>
<path d="M20.7305 26.8583C20.7305 26.7478 20.82 26.6583 20.9305 26.6583H21.4455C21.556 26.6583 21.6455 26.7478 21.6455 26.8583V28.3817C21.6455 28.4922 21.556 28.5817 21.4455 28.5817H20.9305C20.82 28.5817 20.7305 28.4922 20.7305 28.3817V26.8583Z" fill="#0093F5"/>
<path d="M22.1631 26.8583C22.1631 26.7478 22.2526 26.6583 22.3631 26.6583H22.8781C22.9886 26.6583 23.0781 26.7478 23.0781 26.8583V28.3817C23.0781 28.4922 22.9886 28.5817 22.8781 28.5817H22.3631C22.2526 28.5817 22.1631 28.4922 22.1631 28.3817V26.8583Z" fill="#0093F5"/>
<path d="M23.5957 26.8583C23.5957 26.7478 23.6852 26.6583 23.7957 26.6583H24.3107C24.4212 26.6583 24.5107 26.7478 24.5107 26.8583V28.3817C24.5107 28.4922 24.4212 28.5817 24.3107 28.5817H23.7957C23.6852 28.5817 23.5957 28.4922 23.5957 28.3817V26.8583Z" fill="#0093F5"/>
<path d="M26.4609 26.8583C26.4609 26.7478 26.5505 26.6583 26.6609 26.6583H27.176C27.2864 26.6583 27.376 26.7478 27.376 26.8583V28.3817C27.376 28.4922 27.2864 28.5817 27.176 28.5817H26.6609C26.5505 28.5817 26.4609 28.4922 26.4609 28.3817V26.8583Z" fill="#0093F5"/>
<path d="M27.8936 26.8583C27.8936 26.7478 27.9831 26.6583 28.0936 26.6583H28.6086C28.7191 26.6583 28.8086 26.7478 28.8086 26.8583V28.3817C28.8086 28.4922 28.7191 28.5817 28.6086 28.5817H28.0936C27.9831 28.5817 27.8936 28.4922 27.8936 28.3817V26.8583Z" fill="#0093F5"/>
<path d="M29.3262 26.8583C29.3262 26.7478 29.4157 26.6583 29.5262 26.6583H30.0412C30.1517 26.6583 30.2412 26.7478 30.2412 26.8583V28.3817C30.2412 28.4922 30.1517 28.5817 30.0412 28.5817H29.5262C29.4157 28.5817 29.3262 28.4922 29.3262 28.3817V26.8583Z" fill="#0093F5"/>
<path d="M100.636 23.9605V24.7066H32.3379V23.9605H100.636Z" fill="#FF5900"/>
<path d="M33.3021 22.7362C33.3753 22.6637 33.4934 22.6642 33.566 22.7374L33.8289 23.0024C33.9015 23.0756 33.901 23.1938 33.8278 23.2664L32.7506 24.3344L33.827 25.3997C33.9002 25.4722 33.9009 25.5904 33.8284 25.6637L33.566 25.929C33.4934 26.0023 33.3752 26.0029 33.3019 25.9303L31.6904 24.3337L33.3021 22.7362Z" fill="#FF5900"/>
</g>
</g>
<defs>
<clipPath id="clip0_149_4219">
<rect y="0.769409" width="112" height="74" rx="10" fill="white"/>
</clipPath>
<clipPath id="clip1_149_4219">
<rect x="-0.0996094" y="0.936066" width="112" height="74.6667" rx="8" fill="white"/>
</clipPath>
</defs>
</svg>
