<svg width="112" height="75" viewBox="0 0 112 75" fill="none" xmlns="http://www.w3.org/2000/svg">
<g clip-path="url(#clip0_103_10238)">
<rect width="112" height="75" rx="8" fill="#EBF7FF"/>
<path d="M64.9697 0H111.642C111.84 0 112 0.160413 112 0.358293V67.7542H64.9697V0Z" fill="#004ECC"/>
<path d="M78.8804 5.26083C78.8804 4.70855 79.3281 4.26083 79.8804 4.26083H98.9917C99.544 4.26083 99.9917 4.70855 99.9917 5.26083V21.4589H79.3562C79.0934 21.4589 78.8804 21.2459 78.8804 20.9831V5.26083Z" fill="#99D6FF"/>
<path d="M78.8804 40.2608C78.8804 39.7085 79.3281 39.2608 79.8804 39.2608H98.9917C99.544 39.2608 99.9917 39.7085 99.9917 40.2608V56.4589H79.3562C79.0934 56.4589 78.8804 56.2459 78.8804 55.9831V40.2608Z" fill="#99D6FF"/>
<path d="M107.716 39.9774C107.716 39.5817 108.037 39.2608 108.432 39.2608H118.291C118.687 39.2608 119.008 39.5817 119.008 39.9774V67.7579H107.716V39.9774Z" fill="#FFC72C"/>
<rect x="77.8154" y="54.8567" width="23.2414" height="4.29951" rx="0.358293" fill="#F4F4FE"/>
<rect x="77.8154" y="19.0283" width="23.2414" height="4.29951" rx="0.358293" fill="#F4F4FE"/>
<line x1="66.6279" y1="60.2803" x2="-3.15203" y2="60.2803" stroke="#4252F1" stroke-width="0.746667"/>
<path d="M15.626 36.9239C15.626 36.84 15.694 36.772 15.7779 36.772H65.0929C65.1768 36.772 65.2449 36.84 65.2449 36.9239V67.606C65.2449 67.6899 65.1768 67.7579 65.0929 67.7579H15.7779C15.694 67.7579 15.626 67.6899 15.626 67.606V36.9239Z" fill="#004ECC"/>
<path d="M26.1031 26.6945L15.7148 35.7705H65.0037C65.0877 35.7705 65.1557 35.7025 65.1557 35.6185V26.8089C65.1557 26.725 65.0877 26.657 65.0037 26.657H26.2031C26.1663 26.657 26.1308 26.6703 26.1031 26.6945Z" fill="#002F87"/>
<path d="M23.5815 43.6848C23.5815 43.6008 23.6496 43.5328 23.7335 43.5328H56.4108C56.4947 43.5328 56.5627 43.6008 56.5627 43.6848V67.6048C56.5627 67.6887 56.4947 67.7568 56.4108 67.7568H23.7335C23.6496 67.7568 23.5815 67.6887 23.5815 67.6048V43.6848Z" fill="#FFC72C"/>
<path d="M13.8921 34.9225C13.8921 34.8385 13.9601 34.7705 14.044 34.7705H65.1557V37.5943H14.044C13.9601 37.5943 13.8921 37.5263 13.8921 37.4424V34.9225Z" fill="#0093F5"/>
<line x1="23.5815" y1="47.2695" x2="59" y2="47.2695" stroke="#004ECC" stroke-width="0.746667"/>
<line x1="23.5815" y1="51.5363" x2="59" y2="51.5363" stroke="#004ECC" stroke-width="0.746667"/>
<line x1="23.5815" y1="55.8032" x2="59" y2="55.8032" stroke="#004ECC" stroke-width="0.746667"/>
<line x1="23.5815" y1="60.0701" x2="59" y2="60.0701" stroke="#004ECC" stroke-width="0.746667"/>
<line x1="23.5815" y1="64.337" x2="59" y2="64.337" stroke="#004ECC" stroke-width="0.746667"/>
</g>
<defs>
<clipPath id="clip0_103_10238">
<rect width="112" height="75" rx="8" fill="white"/>
</clipPath>
</defs>
</svg>
