<svg width="212" height="212" viewBox="0 0 212 212" fill="none" xmlns="http://www.w3.org/2000/svg">
<g clip-path="url(#clip0_134_931)">
<path d="M212 106.003L206.84 109.236L211.783 112.795L206.432 115.701L211.138 119.567L205.614 122.122L210.065 126.275L204.382 128.473L208.558 132.906L202.747 134.734L206.623 139.429L200.71 140.873L204.28 145.812L198.277 146.872L201.521 152.028L195.468 152.699L198.373 158.053L192.288 158.334L194.848 163.867L188.757 163.758L190.953 169.438L184.881 168.939L186.713 174.753L180.685 173.865L182.141 179.781L176.183 178.516L177.263 184.515L171.401 182.867L172.09 188.924L166.343 186.905L166.65 192.993L161.043 190.61L160.954 196.705L155.513 193.971L155.041 200.047L149.779 196.974L148.917 203.005L143.873 199.593L142.621 205.554L137.8 201.829L136.165 207.7L131.6 203.669L129.595 209.419L125.297 205.1L122.922 210.709L118.912 206.129L116.179 211.572L112.469 206.742L109.397 212L106 206.946L102.603 212L99.5314 206.742L95.8214 211.572L93.0884 206.129L89.0783 210.709L86.7029 205.1L82.4054 209.419L80.4004 203.669L75.8283 207.7L74.2 201.829L69.3789 205.554L68.1274 199.593L63.0828 202.998L62.2143 196.967L56.959 200.047L56.4801 193.971L51.0396 196.705L50.9566 190.61L45.3501 192.987L45.6502 186.905L39.9033 188.917L40.5993 182.867L34.731 184.509L35.8101 178.51L29.8524 179.781L31.3083 173.865L25.2867 174.747L27.113 168.939L21.0467 169.438L23.2434 163.752L17.1516 163.86L19.7058 158.334L13.6267 158.053L16.5258 152.699L10.4787 152.028L13.7161 146.866L7.72012 145.812L11.2896 140.873L5.37024 139.429L9.25265 134.734L3.44181 132.906L7.61795 128.473L1.93482 126.275L6.38554 122.122L0.862048 119.56L5.56819 115.701L0.217108 112.795L5.15952 109.236L0 106.003L5.15952 102.764L0.217108 99.2055L5.56819 96.305L0.862048 92.4397L6.38554 89.8842L1.93482 85.7251L7.61795 83.5274L3.44181 79.0935L9.25265 77.2663L5.37663 72.5705L11.2896 71.1267L7.72012 66.1881L13.7225 65.1276L10.4787 59.9718L16.5322 59.301L13.6267 53.9471L19.7122 53.666L17.1516 48.1333L23.2434 48.2483L21.0467 42.5623L27.1194 43.0606L25.2867 37.2532L31.3147 38.1348L29.8588 32.2188L35.8165 33.4838L34.7374 27.4911L40.5993 29.133L39.9096 23.0828L45.6566 25.0953L45.3501 19.0131L50.9566 21.3897L51.046 15.2948L56.4865 18.0292L56.959 11.9535L62.2207 15.0329L63.0828 9.00184L68.1274 12.4071L69.3789 6.44631L74.2 10.171L75.8347 4.30606L80.4004 8.3374L82.4054 2.58108L86.7029 6.89992L89.0783 1.29054L93.0884 5.87771L95.8214 0.428051L99.5314 5.26438L102.603 0L106 5.05994L109.397 0L112.469 5.26438L116.179 0.428051L118.912 5.87771L122.922 1.29054L125.297 6.89992L129.595 2.58108L131.6 8.3374L136.172 4.30606L137.8 10.171L142.621 6.44631L143.873 12.4071L148.917 9.00184L149.786 15.0329L155.041 11.9535L155.52 18.0292L160.96 15.2948L161.043 21.3897L166.65 19.0131L166.35 25.0953L172.097 23.0828L171.401 29.1394L177.269 27.4911L176.19 33.4902L182.148 32.2252L180.692 38.1412L186.713 37.2532L184.887 43.067L190.953 42.5687L188.757 48.2483L194.848 48.1397L192.294 53.6724L198.373 53.9471L195.474 59.3074L201.521 59.9782L198.284 65.134L204.28 66.1945L200.71 71.1267L206.63 72.5769L202.747 77.2727L208.558 79.0935L204.382 83.5274L210.065 85.7251L205.614 89.8842L211.138 92.4397L206.432 96.305L211.783 99.2055L206.84 102.764L212 106.003Z" fill="#CE1300"/>
<path d="M127.818 76.5481C120.842 76.5481 115.338 71.3641 115.338 64.7721C115.338 58.1161 120.842 52.9321 127.818 52.9321C134.794 52.9321 140.298 58.1161 140.298 64.7721C140.298 71.3641 134.794 76.5481 127.818 76.5481ZM127.818 69.7641C130.634 69.7001 132.746 67.5881 132.746 64.7721C132.746 61.9561 130.634 59.7801 127.818 59.7161C125.002 59.7801 122.89 61.9561 122.89 64.7721C122.89 67.5881 125.002 69.7001 127.818 69.7641ZM125.194 99.8441L120.01 94.6601L159.754 53.3801L164.938 58.5641L125.194 99.8441ZM156.554 76.6761C163.53 76.6761 169.034 81.8601 169.034 88.4521C169.034 95.1081 163.53 100.292 156.554 100.292C149.578 100.292 144.074 95.1081 144.074 88.4521C144.074 81.8601 149.578 76.6761 156.554 76.6761ZM156.554 83.4601C153.738 83.5241 151.626 85.6361 151.626 88.4521C151.626 91.2681 153.738 93.4441 156.554 93.5081C159.37 93.4441 161.482 91.2681 161.482 88.4521C161.482 85.6361 159.37 83.5241 156.554 83.4601Z" fill="white"/>
<path d="M94.943 100.292C85.279 100.292 79.071 94.66 78.495 87.044L87.775 86.34C88.223 90.372 91.295 92.612 95.071 92.612C99.167 92.612 102.303 89.796 102.303 85.124C102.303 80.388 99.167 77.572 95.071 77.572C92.255 77.572 89.823 78.98 88.543 81.284L79.263 80.068L81.695 54.212H110.431V61.956H89.951L88.799 74.116C90.911 71.492 94.431 70.276 97.759 70.276C104.799 70.276 111.647 75.396 111.647 84.612C111.647 93.828 104.799 100.292 94.943 100.292Z" fill="white"/>
<path d="M43.0304 92.2281C60.4384 78.3401 65.0464 73.5401 65.0464 67.9721C65.0464 63.8761 62.5504 61.1881 58.9024 61.1881C54.9344 61.1881 52.3104 64.5161 52.3104 69.3801L42.9664 69.1881C42.9664 59.8441 49.1744 52.9321 59.0944 52.9321C68.5664 52.9321 74.5184 58.8201 74.5184 67.4601C74.5184 74.9481 69.7184 82.2441 55.3824 91.4601H74.2624V99.0121H43.0304V92.2281Z" fill="white"/>
<path d="M131.308 124.188C131.308 114.908 139.18 111.26 146.604 112.54V119.964C143.852 119.132 140.652 119.772 140.652 124.188V125.724H147.5V133.532H140.652V158.108H131.308V133.532H125.676V125.724H131.308V124.188Z" fill="white"/>
<path d="M106.653 124.188C106.653 114.908 114.525 111.26 121.949 112.54V119.964C119.197 119.132 115.997 119.772 115.997 124.188V125.724H122.845V133.532H115.997V158.108H106.653V133.532H101.021V125.724H106.653V124.188Z" fill="white"/>
<path d="M81.716 159.068C71.668 159.068 64.5 151.9 64.5 141.916C64.5 131.932 71.668 124.764 81.716 124.764C91.7 124.764 98.932 131.932 98.932 141.916C98.932 151.9 91.7 159.068 81.716 159.068ZM81.716 151.196C86.324 151.196 89.524 147.356 89.524 141.916C89.524 136.476 86.324 132.636 81.716 132.636C77.108 132.636 73.908 136.476 73.908 141.916C73.908 147.356 77.108 151.196 81.716 151.196Z" fill="white"/>
</g>
<defs>
<clipPath id="clip0_134_931">
<rect width="212" height="212" fill="white"/>
</clipPath>
</defs>
</svg>
