<svg width="113" height="75" viewBox="0 0 113 75" fill="none" xmlns="http://www.w3.org/2000/svg">
<g clip-path="url(#clip0_103_10289)">
<path d="M36.5 9.59682C36.5 7.33421 38.3342 5.5 40.5968 5.5H54.8032C57.0658 5.5 58.9 7.33421 58.9 9.59683V36.4186C58.9 38.6813 57.0658 40.5155 54.8032 40.5155H40.5968C38.3342 40.5155 36.5 38.6813 36.5 36.4186V9.59682Z" fill="#004ECC"/>
<path d="M47.1899 65.5844V50.6244C47.1899 48.7911 47.931 47.0351 49.2437 45.7553L54.936 40.2055L55.2153 40.4916L55.4937 40.7777L49.8013 46.3285C48.6433 47.4578 47.9907 49.007 47.9907 50.6244V65.5844C47.9907 67.1735 49.2786 68.4622 50.8677 68.4623H59.4712C61.0603 68.4623 62.3481 67.1735 62.3481 65.5844V58.351C62.3481 57.1942 61.6646 56.1996 60.6802 55.7426L60.8042 61.9652C60.8449 64.0241 59.1867 65.715 57.1274 65.7152H55.6929C54.2098 65.7152 52.8713 64.8248 52.2993 63.4565L50.7583 59.769C49.7459 57.3464 51.5253 54.6735 54.1509 54.6732H59.4712C59.6025 54.6733 59.7321 54.6803 59.8599 54.6938L59.6636 44.7543C59.6166 42.3777 62.3464 41.0084 64.2231 42.4672L63.978 42.7836L63.7319 43.099C62.3865 42.0533 60.4297 43.0349 60.4634 44.7387L60.6636 54.8725C62.1091 55.3679 63.1489 56.7375 63.1489 58.351V65.5844C63.1489 67.6154 61.5022 69.2621 59.4712 69.2621H50.8677C48.8367 69.2621 47.1899 67.6153 47.1899 65.5844ZM54.1509 55.474C52.0965 55.4743 50.7045 57.5648 51.4966 59.4604L53.0376 63.1479C53.4851 64.2185 54.5324 64.9154 55.6929 64.9154H57.1274C58.7385 64.9152 60.036 63.5926 60.0044 61.9818L59.8755 55.5053C59.7432 55.4867 59.6086 55.474 59.4712 55.474H54.1509Z" fill="#0093F5"/>
<path d="M72.9873 47.1469L68.9038 51.3704L62.7082 44.0424C62.3459 43.6139 62.367 42.9806 62.7571 42.5771L63.9919 41.3C64.3819 40.8966 65.0142 40.8541 65.4547 41.2018L72.9873 47.1469Z" fill="#004ECC"/>
<path d="M62.7083 44.0423L62.6455 43.9598C62.3701 43.5639 62.3874 43.032 62.6884 42.6552L62.7575 42.5767L63.4476 43.244C63.4002 43.293 63.3976 43.3708 63.4417 43.4229L68.9515 49.94L71.5593 47.2427L64.8603 41.9557C64.8068 41.9135 64.7298 41.9181 64.6823 41.9669L63.9922 41.2997L64.0676 41.2287C64.434 40.9151 64.965 40.88 65.37 41.1418L65.4546 41.2019L72.9873 47.1469L68.9038 51.3704L62.7083 44.0423ZM63.4476 43.244L62.7575 42.5767L63.9922 41.2997L64.6823 41.9669L63.4476 43.244Z" fill="#FFF4EB"/>
<path d="M78.985 62.2652C78.4977 62.7691 77.6938 62.7827 77.1899 62.2954L75.4529 60.6161C75.2407 60.4108 75.1073 60.1376 75.0746 59.8441L74.8614 57.9319C74.796 57.3446 74.5274 56.7981 74.1026 56.3873L68.1013 50.5849L72.1727 46.3739L78.1593 52.162C78.5933 52.5816 79.1627 52.8335 79.7652 52.8711L81.6948 52.9913C81.996 53.0101 82.2808 53.1354 82.4977 53.3451L84.227 55.017C84.7309 55.5043 84.7444 56.3082 84.2572 56.8121L78.985 62.2652Z" fill="#004ECC"/>
<path d="M74.7699 55.6972C75.3553 56.2632 75.7253 57.0165 75.8154 57.826L76.0286 59.7382C76.0368 59.8111 76.0698 59.8771 76.1202 59.9259L77.8571 61.6053C77.9645 61.7091 78.1284 61.72 78.2472 61.6388L78.2949 61.5979L83.5671 56.1449C83.6858 56.022 83.6824 55.8258 83.5597 55.7071L81.8305 54.0353C81.7783 53.9849 81.7091 53.9542 81.635 53.9495L79.7054 53.8294L79.3961 53.7966C78.681 53.6874 78.015 53.3577 77.492 52.8521L72.1956 47.7313L69.4587 50.5621L74.7699 55.6972ZM75.4529 60.6161L75.377 60.5359C75.2089 60.342 75.1032 60.1009 75.0746 59.8441L74.8614 57.9319L74.8273 57.7142C74.7264 57.2104 74.4744 56.7468 74.1026 56.3873L68.1013 50.5849L72.1727 46.3739L78.1593 52.162C78.5933 52.5816 79.1627 52.8335 79.7652 52.8711L81.6948 52.9913C81.9584 53.0078 82.2096 53.1057 82.4136 53.2706L82.4977 53.3451L84.227 55.017C84.6994 55.4738 84.7406 56.2086 84.3426 56.714L84.2572 56.8121L78.985 62.2652C78.4977 62.7691 77.6938 62.7827 77.1899 62.2954L75.4529 60.6161Z" fill="#FFF4EB"/>
<path d="M43.9033 12.0569C43.9033 11.6043 44.2702 11.2375 44.7227 11.2375H50.4582C50.9108 11.2375 51.2776 11.6043 51.2776 12.0569V13.6956C51.2776 14.1481 50.9108 14.5149 50.4582 14.5149H44.7227C44.2702 14.5149 43.9033 14.1481 43.9033 13.6956V12.0569Z" fill="#FF5900"/>
<path d="M54.42 28.5388C54.42 32.2501 51.4113 35.2588 47.7 35.2588C43.9886 35.2588 40.98 32.2501 40.98 28.5388C40.98 24.8274 43.9886 21.8188 47.7 21.8188C51.4113 21.8188 54.42 24.8274 54.42 28.5388Z" fill="#002F87"/>
<path d="M58.2065 33.386L62.3606 37.5401L61.5493 38.3289L54.9277 43.6255C54.4929 43.9734 53.866 43.9387 53.4722 43.5449L52.2015 42.2741C51.8078 41.8805 51.773 41.2538 52.1206 40.8189L57.4255 34.1822L58.2065 33.386Z" fill="#004ECC"/>
<path d="M61.5486 38.3286L54.9278 43.625C54.5203 43.951 53.9438 43.9414 53.5489 43.6146L53.4722 43.5449L54.151 42.8661C54.1989 42.9138 54.275 42.9179 54.3278 42.8758L60.9202 37.6008L60.9934 37.5304L58.2134 34.7504L58.1451 34.8188L52.8701 41.4181C52.828 41.471 52.8327 41.5477 52.8805 41.5956L52.2017 42.2744L52.132 42.1977C51.8267 41.8292 51.7976 41.3024 52.0602 40.9023L52.1202 40.8187L57.4256 34.1821L58.2065 33.386L62.3606 37.5401L61.5486 38.3286ZM54.151 42.8661L53.4722 43.5449L52.2017 42.2744L52.8805 41.5956L54.151 42.8661Z" fill="#FFF4EB"/>
<path d="M73.421 27.6387C73.9167 28.1344 73.9167 28.9384 73.421 29.4341L71.7126 31.1425C71.5037 31.3513 71.2285 31.4814 70.9344 31.5092L69.0196 31.6894C68.4312 31.7449 67.8803 32.0042 67.4624 32.422L61.5597 38.3247L57.4179 34.1829L63.3061 28.2947C63.7328 27.8679 63.9929 27.3026 64.0408 26.701L64.1948 24.7737C64.2187 24.4727 64.3487 24.1903 64.5622 23.9768L66.263 22.276C66.7586 21.7803 67.5626 21.7803 68.0583 22.276L73.421 27.6387Z" fill="#004ECC"/>
<path d="M66.7836 31.7432C67.3594 31.1675 68.1188 30.8102 68.9298 30.7337L70.8446 30.5535C70.9148 30.5467 70.9821 30.5154 71.0338 30.4637L72.7422 28.7553C72.863 28.6345 72.863 28.4383 72.7422 28.3175L67.3795 22.9548C67.2588 22.834 67.0625 22.834 66.9417 22.9548L65.241 24.6556C65.1895 24.707 65.1578 24.7756 65.1519 24.8496L64.9979 26.7769C64.932 27.6054 64.5735 28.3847 63.9849 28.9735L58.7755 34.1829L61.5597 36.9671L66.7836 31.7432ZM71.7126 31.1425L71.6312 31.2171C71.4345 31.3822 71.1917 31.4849 70.9344 31.5092L69.0196 31.6894L68.8014 31.7198C68.2959 31.8122 67.8281 32.0563 67.4624 32.422L61.5597 38.3247L57.4179 34.1829L63.3061 28.2947C63.6795 27.9212 63.9255 27.4418 64.0132 26.9247L64.0408 26.701L64.1948 24.7737C64.2157 24.5103 64.3179 24.2609 64.4862 24.0597L64.5622 23.9768L66.263 22.276C66.7586 21.7803 67.5626 21.7803 68.0583 22.276L73.421 27.6387C73.9167 28.1344 73.9167 28.9384 73.421 29.4341L71.7126 31.1425Z" fill="#FFF4EB"/>
</g>
<defs>
<clipPath id="clip0_103_10289">
<rect width="49" height="64" fill="white" transform="translate(36.5 5.5)"/>
</clipPath>
</defs>
</svg>
